<svg width="238" height="24" viewBox="0 0 238 24" fill="none" xmlns="http://www.w3.org/2000/svg">
<path d="M27.544 -1.90735e-06V24H19.288V3.584L23 7.296H5.464L9.176 3.584V24H0.92V-1.90735e-06H27.544ZM52.7968 9.152V14.848H34.7168V9.152H52.7968ZM40.3808 12L38.9088 20.928L35.7728 17.472H53.9808V24H30.7488L32.5088 12L30.7488 -1.90735e-06H53.8208V6.528H35.7728L38.9088 3.072L40.3808 12ZM71.3415 -1.90735e-06C73.5175 -1.90735e-06 75.3735 0.362665 76.9095 1.088C78.4668 1.792 79.6508 2.80533 80.4615 4.128C81.2722 5.42933 81.6775 6.96533 81.6775 8.736C81.6775 10.5067 81.2722 12.0533 80.4615 13.376C79.6508 14.6773 78.4668 15.6907 76.9095 16.416C75.3735 17.12 73.5175 17.472 71.3415 17.472H61.1975V11.04H70.7975C71.6082 11.04 72.2375 10.8373 72.6855 10.432C73.1335 10.0267 73.3575 9.46133 73.3575 8.736C73.3575 7.98933 73.1335 7.424 72.6855 7.04C72.2375 6.63467 71.6082 6.432 70.7975 6.432H61.9015L65.6135 2.72V24H57.3575V-1.90735e-06H71.3415ZM105.391 9.152V14.848H87.3105V9.152H105.391ZM92.9745 12L91.5025 20.928L88.3665 17.472H106.575V24H83.3425L85.1025 12L83.3425 -1.90735e-06H106.415V6.528H88.3665L91.5025 3.072L92.9745 12ZM146.911 -1.90735e-06V24H139.071V3.104L140.575 3.296L132.511 24H124.351L116.287 3.392L117.791 3.168V24H109.951V-1.90735e-06H122.719L129.887 19.552H127.039L134.143 -1.90735e-06H146.911ZM172.172 9.152V14.848H154.092V9.152H172.172ZM159.756 12L158.284 20.928L155.148 17.472H173.356V24H150.124L151.884 12L150.124 -1.90735e-06H173.196V6.528H155.148L158.284 3.072L159.756 12ZM176.733 -1.90735e-06H184.989V24H176.733V-1.90735e-06ZM195.229 -1.90735e-06H203.485V24H195.229V-1.90735e-06ZM181.405 8.096H198.461V15.392H181.405V8.096ZM213.022 19.968V13.408H229.374V19.968H213.022ZM226.846 -1.90735e-06L237.374 24H228.574L220.286 3.648H222.398L214.11 24H205.31L215.838 -1.90735e-06H226.846Z" fill="#13273F"/>
</svg>
