<svg width="35" height="35" viewBox="0 0 35 35" fill="none" xmlns="http://www.w3.org/2000/svg">
<path d="M29 29H6V6H17.501V4.37589H6.56348C5.98332 4.37589 5.46973 4.37387 4.37776 4.37591C4.37718 7.65855 4.37598 5.98323 4.37598 6.56339V28.4384C4.37598 29.0186 4.37858 30.1728 4.37728 30.6259C5.46973 30.6259 5.98332 30.6259 6.56348 30.6259H28.4385C29.0186 30.6259 29.5322 30.6259 30.626 30.6259C30.626 29.5321 30.626 29.0186 30.626 28.4384V17.5009H29V29Z" fill="#12101A"/>
<path d="M24.9302 10.1579V3H23.2292V10.1579H16V11.8421H23.2292V19H24.9302V11.8421H32V10.1579H24.9302Z" fill="#12101A"/>
</svg>
